<mxfile host="Electron" agent="Mozilla/5.0 (Windows NT 10.0; Win64; x64) AppleWebKit/537.36 (KHTML, like Gecko) draw.io/24.7.17 Chrome/128.0.6613.36 Electron/32.0.1 Safari/537.36" version="24.7.17">
  <diagram name="Page-1" id="rSCj_LUOKC8hmFgoFRef">
    <mxGraphModel dx="2085" dy="731" grid="1" gridSize="10" guides="1" tooltips="1" connect="1" arrows="1" fold="1" page="1" pageScale="1" pageWidth="850" pageHeight="1100" math="0" shadow="0">
      <root>
        <mxCell id="0" />
        <mxCell id="1" parent="0" />
        <mxCell id="Z48n8Z-hnVd7AuyeqPhM-1" value="&lt;u&gt;id&lt;/u&gt;" style="ellipse;whiteSpace=wrap;html=1;" parent="1" vertex="1">
          <mxGeometry x="360" y="250" width="50" height="30" as="geometry" />
        </mxCell>
        <mxCell id="Z48n8Z-hnVd7AuyeqPhM-3" value="Blog" style="rounded=0;whiteSpace=wrap;html=1;" parent="1" vertex="1">
          <mxGeometry x="380" y="320" width="40" height="30" as="geometry" />
        </mxCell>
        <mxCell id="Z48n8Z-hnVd7AuyeqPhM-4" value="title" style="ellipse;whiteSpace=wrap;html=1;" parent="1" vertex="1">
          <mxGeometry x="425" y="250" width="50" height="30" as="geometry" />
        </mxCell>
        <mxCell id="Z48n8Z-hnVd7AuyeqPhM-5" value="sub&amp;nbsp;&lt;div&gt;title&lt;/div&gt;" style="ellipse;whiteSpace=wrap;html=1;" parent="1" vertex="1">
          <mxGeometry x="460" y="290" width="50" height="30" as="geometry" />
        </mxCell>
        <mxCell id="Z48n8Z-hnVd7AuyeqPhM-6" value="content" style="ellipse;whiteSpace=wrap;html=1;" parent="1" vertex="1">
          <mxGeometry x="530" y="280" width="50" height="30" as="geometry" />
        </mxCell>
        <mxCell id="Z48n8Z-hnVd7AuyeqPhM-7" value="clap count" style="ellipse;whiteSpace=wrap;html=1;" parent="1" vertex="1">
          <mxGeometry x="520" y="330" width="50" height="30" as="geometry" />
        </mxCell>
        <mxCell id="Z48n8Z-hnVd7AuyeqPhM-8" value="comment&lt;div&gt;count&lt;/div&gt;" style="ellipse;whiteSpace=wrap;html=1;" parent="1" vertex="1">
          <mxGeometry x="450" y="350" width="60" height="30" as="geometry" />
        </mxCell>
        <mxCell id="Z48n8Z-hnVd7AuyeqPhM-9" value="image" style="ellipse;whiteSpace=wrap;html=1;" parent="1" vertex="1">
          <mxGeometry x="460" y="390" width="50" height="30" as="geometry" />
        </mxCell>
        <mxCell id="Z48n8Z-hnVd7AuyeqPhM-10" value="tags" style="ellipse;whiteSpace=wrap;html=1;" parent="1" vertex="1">
          <mxGeometry x="375" y="400" width="50" height="30" as="geometry" />
        </mxCell>
        <mxCell id="Z48n8Z-hnVd7AuyeqPhM-11" value="user_id" style="ellipse;whiteSpace=wrap;html=1;" parent="1" vertex="1">
          <mxGeometry x="300" y="380" width="50" height="30" as="geometry" />
        </mxCell>
        <mxCell id="Z48n8Z-hnVd7AuyeqPhM-12" value="created at" style="ellipse;whiteSpace=wrap;html=1;" parent="1" vertex="1">
          <mxGeometry x="300" y="290" width="50" height="30" as="geometry" />
        </mxCell>
        <mxCell id="Z48n8Z-hnVd7AuyeqPhM-13" value="updated at" style="ellipse;whiteSpace=wrap;html=1;" parent="1" vertex="1">
          <mxGeometry x="280" y="330" width="50" height="30" as="geometry" />
        </mxCell>
        <mxCell id="Z48n8Z-hnVd7AuyeqPhM-14" value="clap" style="rounded=0;whiteSpace=wrap;html=1;" parent="1" vertex="1">
          <mxGeometry x="420" y="135" width="40" height="20" as="geometry" />
        </mxCell>
        <mxCell id="Z48n8Z-hnVd7AuyeqPhM-15" value="&lt;u&gt;id&lt;/u&gt;" style="ellipse;whiteSpace=wrap;html=1;" parent="1" vertex="1">
          <mxGeometry x="405" y="90" width="40" height="30" as="geometry" />
        </mxCell>
        <mxCell id="Z48n8Z-hnVd7AuyeqPhM-16" value="user_id" style="ellipse;whiteSpace=wrap;html=1;" parent="1" vertex="1">
          <mxGeometry x="455" y="90" width="50" height="30" as="geometry" />
        </mxCell>
        <mxCell id="Z48n8Z-hnVd7AuyeqPhM-17" value="blog_id" style="ellipse;whiteSpace=wrap;html=1;" parent="1" vertex="1">
          <mxGeometry x="470" y="130" width="50" height="30" as="geometry" />
        </mxCell>
        <mxCell id="Z48n8Z-hnVd7AuyeqPhM-18" value="comment" style="rounded=0;whiteSpace=wrap;html=1;" parent="1" vertex="1">
          <mxGeometry x="30" y="95" width="60" height="25" as="geometry" />
        </mxCell>
        <mxCell id="Z48n8Z-hnVd7AuyeqPhM-19" value="&lt;u&gt;id&lt;/u&gt;" style="ellipse;whiteSpace=wrap;html=1;" parent="1" vertex="1">
          <mxGeometry x="-10" y="50" width="40" height="30" as="geometry" />
        </mxCell>
        <mxCell id="Z48n8Z-hnVd7AuyeqPhM-20" value="user_id" style="ellipse;whiteSpace=wrap;html=1;" parent="1" vertex="1">
          <mxGeometry x="50" y="50" width="50" height="30" as="geometry" />
        </mxCell>
        <mxCell id="Z48n8Z-hnVd7AuyeqPhM-21" value="blog_id" style="ellipse;whiteSpace=wrap;html=1;" parent="1" vertex="1">
          <mxGeometry x="130" y="50" width="50" height="30" as="geometry" />
        </mxCell>
        <mxCell id="Z48n8Z-hnVd7AuyeqPhM-22" value="content" style="ellipse;whiteSpace=wrap;html=1;" parent="1" vertex="1">
          <mxGeometry x="110" y="100" width="50" height="30" as="geometry" />
        </mxCell>
        <mxCell id="Z48n8Z-hnVd7AuyeqPhM-23" value="history" style="rounded=0;whiteSpace=wrap;html=1;" parent="1" vertex="1">
          <mxGeometry x="-50" y="350" width="60" height="25" as="geometry" />
        </mxCell>
        <mxCell id="Z48n8Z-hnVd7AuyeqPhM-24" value="&lt;u&gt;id&lt;/u&gt;" style="ellipse;whiteSpace=wrap;html=1;" parent="1" vertex="1">
          <mxGeometry x="-100" y="310" width="50" height="30" as="geometry" />
        </mxCell>
        <mxCell id="Z48n8Z-hnVd7AuyeqPhM-25" value="user_id" style="ellipse;whiteSpace=wrap;html=1;" parent="1" vertex="1">
          <mxGeometry x="-40" y="310" width="50" height="30" as="geometry" />
        </mxCell>
        <mxCell id="Z48n8Z-hnVd7AuyeqPhM-26" value="blog_id" style="ellipse;whiteSpace=wrap;html=1;" parent="1" vertex="1">
          <mxGeometry x="20" y="310" width="50" height="30" as="geometry" />
        </mxCell>
        <mxCell id="Z48n8Z-hnVd7AuyeqPhM-27" value="read later" style="rounded=0;whiteSpace=wrap;html=1;" parent="1" vertex="1">
          <mxGeometry x="-40" y="500" width="60" height="30" as="geometry" />
        </mxCell>
        <mxCell id="Z48n8Z-hnVd7AuyeqPhM-28" value="&lt;u&gt;id&lt;/u&gt;" style="ellipse;whiteSpace=wrap;html=1;" parent="1" vertex="1">
          <mxGeometry x="-100" y="470" width="50" height="30" as="geometry" />
        </mxCell>
        <mxCell id="Z48n8Z-hnVd7AuyeqPhM-29" value="user_id" style="ellipse;whiteSpace=wrap;html=1;" parent="1" vertex="1">
          <mxGeometry x="-40" y="460" width="50" height="30" as="geometry" />
        </mxCell>
        <mxCell id="Z48n8Z-hnVd7AuyeqPhM-30" value="blog_id" style="ellipse;whiteSpace=wrap;html=1;" parent="1" vertex="1">
          <mxGeometry x="30" y="460" width="50" height="30" as="geometry" />
        </mxCell>
        <mxCell id="Z48n8Z-hnVd7AuyeqPhM-31" value="follower" style="rounded=0;whiteSpace=wrap;html=1;" parent="1" vertex="1">
          <mxGeometry x="-130" y="115" width="60" height="25" as="geometry" />
        </mxCell>
        <mxCell id="Z48n8Z-hnVd7AuyeqPhM-32" value="follower_id" style="ellipse;whiteSpace=wrap;html=1;" parent="1" vertex="1">
          <mxGeometry x="-200" y="70" width="70" height="30" as="geometry" />
        </mxCell>
        <mxCell id="Z48n8Z-hnVd7AuyeqPhM-33" value="followed_id" style="ellipse;whiteSpace=wrap;html=1;" parent="1" vertex="1">
          <mxGeometry x="-110" y="70" width="70" height="30" as="geometry" />
        </mxCell>
        <mxCell id="Z48n8Z-hnVd7AuyeqPhM-35" value="notification" style="rounded=0;whiteSpace=wrap;html=1;" parent="1" vertex="1">
          <mxGeometry x="-130" y="240" width="70" height="30" as="geometry" />
        </mxCell>
        <mxCell id="Z48n8Z-hnVd7AuyeqPhM-36" value="&lt;u&gt;id&lt;/u&gt;" style="ellipse;whiteSpace=wrap;html=1;" parent="1" vertex="1">
          <mxGeometry x="-190" y="210" width="40" height="20" as="geometry" />
        </mxCell>
        <mxCell id="Z48n8Z-hnVd7AuyeqPhM-37" value="user_id" style="ellipse;whiteSpace=wrap;html=1;" parent="1" vertex="1">
          <mxGeometry x="-130" y="200" width="50" height="20" as="geometry" />
        </mxCell>
        <mxCell id="Z48n8Z-hnVd7AuyeqPhM-38" value="title" style="ellipse;whiteSpace=wrap;html=1;" parent="1" vertex="1">
          <mxGeometry x="-70" y="200" width="40" height="20" as="geometry" />
        </mxCell>
        <mxCell id="Z48n8Z-hnVd7AuyeqPhM-39" value="body" style="ellipse;whiteSpace=wrap;html=1;" parent="1" vertex="1">
          <mxGeometry x="-40" y="220" width="40" height="20" as="geometry" />
        </mxCell>
        <mxCell id="Z48n8Z-hnVd7AuyeqPhM-40" value="user" style="rounded=0;whiteSpace=wrap;html=1;" parent="1" vertex="1">
          <mxGeometry x="-570" y="60" width="50" height="20" as="geometry" />
        </mxCell>
        <mxCell id="Z48n8Z-hnVd7AuyeqPhM-41" value="&lt;u&gt;id&lt;/u&gt;" style="ellipse;whiteSpace=wrap;html=1;" parent="1" vertex="1">
          <mxGeometry x="-630" y="55" width="40" height="25" as="geometry" />
        </mxCell>
        <mxCell id="Z48n8Z-hnVd7AuyeqPhM-42" value="name" style="ellipse;whiteSpace=wrap;html=1;" parent="1" vertex="1">
          <mxGeometry x="-590" y="10" width="50" height="30" as="geometry" />
        </mxCell>
        <mxCell id="Z48n8Z-hnVd7AuyeqPhM-43" value="email" style="ellipse;whiteSpace=wrap;html=1;" parent="1" vertex="1">
          <mxGeometry x="-520" y="10" width="50" height="30" as="geometry" />
        </mxCell>
        <mxCell id="Z48n8Z-hnVd7AuyeqPhM-44" value="password" style="ellipse;whiteSpace=wrap;html=1;" parent="1" vertex="1">
          <mxGeometry x="-510" y="50" width="50" height="30" as="geometry" />
        </mxCell>
        <mxCell id="6WczsIn22DoI0dGNfMC2-1" value="" style="endArrow=none;html=1;rounded=0;exitX=0.5;exitY=0;exitDx=0;exitDy=0;entryX=0.683;entryY=1.067;entryDx=0;entryDy=0;entryPerimeter=0;" edge="1" parent="1" source="Z48n8Z-hnVd7AuyeqPhM-40" target="Z48n8Z-hnVd7AuyeqPhM-42">
          <mxGeometry width="50" height="50" relative="1" as="geometry">
            <mxPoint x="-600" y="80" as="sourcePoint" />
            <mxPoint x="-550" y="30" as="targetPoint" />
          </mxGeometry>
        </mxCell>
        <mxCell id="6WczsIn22DoI0dGNfMC2-2" value="has" style="rhombus;whiteSpace=wrap;html=1;" vertex="1" parent="1">
          <mxGeometry x="-390" y="115" width="40" height="35" as="geometry" />
        </mxCell>
      </root>
    </mxGraphModel>
  </diagram>
</mxfile>
